# Blender v2.82 (sub 7) OBJ File: 'axis.blend'
# www.blender.org
mtllib axis.mtl
o Cylinder
v 0.000000 0.000000 -0.174000
v 0.000000 6.500000 -0.174000
v 0.033946 0.000000 -0.170657
v 0.033946 6.500000 -0.170657
v 0.066587 0.000000 -0.160755
v 0.066587 6.500000 -0.160755
v 0.096669 0.000000 -0.144676
v 0.096669 6.500000 -0.144676
v 0.123037 0.000000 -0.123037
v 0.123037 6.500000 -0.123037
v 0.144676 0.000000 -0.096669
v 0.144676 6.500000 -0.096669
v 0.160755 0.000000 -0.066587
v 0.160755 6.500000 -0.066587
v 0.170657 0.000000 -0.033946
v 0.170657 6.500000 -0.033946
v 0.174000 0.000000 -0.000000
v 0.174000 6.500000 -0.000000
v 0.170657 0.000000 0.033946
v 0.170657 6.500000 0.033946
v 0.160755 0.000000 0.066587
v 0.160755 6.500000 0.066587
v 0.144676 0.000000 0.096669
v 0.144676 6.500000 0.096669
v 0.123037 0.000000 0.123037
v 0.123037 6.500000 0.123037
v 0.096669 0.000000 0.144676
v 0.096669 6.500000 0.144676
v 0.066587 0.000000 0.160755
v 0.066587 6.500000 0.160755
v 0.033946 0.000000 0.170657
v 0.033946 6.500000 0.170657
v -0.000000 0.000000 0.174000
v -0.000000 6.500000 0.174000
v -0.033946 0.000000 0.170657
v -0.033946 6.500000 0.170657
v -0.066587 0.000000 0.160755
v -0.066587 6.500000 0.160755
v -0.096669 0.000000 0.144676
v -0.096669 6.500000 0.144676
v -0.123037 0.000000 0.123037
v -0.123037 6.500000 0.123037
v -0.144676 0.000000 0.096669
v -0.144676 6.500000 0.096669
v -0.160755 0.000000 0.066587
v -0.160755 6.500000 0.066587
v -0.170657 0.000000 0.033946
v -0.170657 6.500000 0.033946
v -0.174000 0.000000 -0.000000
v -0.174000 6.500000 -0.000000
v -0.170657 0.000000 -0.033946
v -0.170657 6.500000 -0.033946
v -0.160755 0.000000 -0.066587
v -0.160755 6.500000 -0.066587
v -0.144676 0.000000 -0.096669
v -0.144676 6.500000 -0.096669
v -0.123036 0.000000 -0.123037
v -0.123036 6.500000 -0.123037
v -0.096669 0.000000 -0.144676
v -0.096669 6.500000 -0.144676
v -0.066587 0.000000 -0.160755
v -0.066587 6.500000 -0.160755
v -0.033945 0.000000 -0.170657
v -0.033945 6.500000 -0.170657
v 0.000000 6.500000 -0.250000
v 0.048773 6.500000 -0.245196
v 0.095671 6.500000 -0.230970
v 0.138893 6.500000 -0.207867
v 0.176777 6.500000 -0.176777
v 0.207867 6.500000 -0.138893
v 0.230970 6.500000 -0.095671
v 0.245196 6.500000 -0.048773
v 0.250000 6.500000 -0.000000
v 0.245196 6.500000 0.048773
v 0.230970 6.500000 0.095671
v 0.207867 6.500000 0.138893
v 0.176777 6.500000 0.176777
v 0.138893 6.500000 0.207867
v 0.095671 6.500000 0.230970
v 0.048773 6.500000 0.245196
v -0.000000 6.500000 0.250000
v -0.048773 6.500000 0.245196
v -0.095671 6.500000 0.230970
v -0.138893 6.500000 0.207867
v -0.176777 6.500000 0.176777
v -0.207868 6.500000 0.138892
v -0.230970 6.500000 0.095671
v 0.000000 6.999999 0.000000
v -0.245196 6.500000 0.048772
v -0.250000 6.500000 -0.000000
v -0.245196 6.500000 -0.048773
v -0.230970 6.500000 -0.095671
v -0.207867 6.500000 -0.138893
v -0.176776 6.500000 -0.176777
v -0.138892 6.500000 -0.207868
v -0.095671 6.500000 -0.230970
v -0.048772 6.500000 -0.245196
vt 1.000000 1.000000
vt 0.968750 0.500000
vt 1.000000 0.500000
vt 0.968750 1.000000
vt 0.937500 0.500000
vt 0.937500 1.000000
vt 0.906250 0.500000
vt 0.906250 1.000000
vt 0.875000 0.500000
vt 0.875000 1.000000
vt 0.843750 0.500000
vt 0.843750 1.000000
vt 0.812500 0.500000
vt 0.812500 1.000000
vt 0.781250 0.500000
vt 0.781250 1.000000
vt 0.750000 0.500000
vt 0.750000 1.000000
vt 0.718750 0.500000
vt 0.718750 1.000000
vt 0.687500 0.500000
vt 0.687500 1.000000
vt 0.656250 0.500000
vt 0.656250 1.000000
vt 0.625000 0.500000
vt 0.625000 1.000000
vt 0.593750 0.500000
vt 0.593750 1.000000
vt 0.562500 0.500000
vt 0.562500 1.000000
vt 0.531250 0.500000
vt 0.531250 1.000000
vt 0.500000 0.500000
vt 0.500000 1.000000
vt 0.468750 0.500000
vt 0.468750 1.000000
vt 0.437500 0.500000
vt 0.437500 1.000000
vt 0.406250 0.500000
vt 0.406250 1.000000
vt 0.375000 0.500000
vt 0.375000 1.000000
vt 0.343750 0.500000
vt 0.343750 1.000000
vt 0.312500 0.500000
vt 0.312500 1.000000
vt 0.281250 0.500000
vt 0.281250 1.000000
vt 0.250000 0.500000
vt 0.250000 1.000000
vt 0.218750 0.500000
vt 0.218750 1.000000
vt 0.187500 0.500000
vt 0.187500 1.000000
vt 0.156250 0.500000
vt 0.156250 1.000000
vt 0.125000 0.500000
vt 0.125000 1.000000
vt 0.093750 0.500000
vt 0.093750 1.000000
vt 0.062500 0.500000
vt 0.028269 0.341844
vt 0.158156 0.028269
vt 0.471731 0.158156
vt 0.062500 1.000000
vt 0.031250 0.500000
vt 0.031250 1.000000
vt 0.000000 0.500000
vt 0.985388 0.296822
vt 0.796822 0.014612
vt 0.514611 0.203179
vt 0.250000 0.490000
vt 0.250000 0.250000
vt 0.296822 0.485388
vt 0.341844 0.471731
vt 0.383337 0.449553
vt 0.419706 0.419706
vt 0.449553 0.383337
vt 0.471731 0.341844
vt 0.485388 0.296822
vt 0.490000 0.250000
vt 0.485388 0.203178
vt 0.471731 0.158156
vt 0.449553 0.116663
vt 0.419706 0.080294
vt 0.383337 0.050447
vt 0.341844 0.028269
vt 0.296822 0.014612
vt 0.250000 0.010000
vt 0.203178 0.014612
vt 0.158156 0.028269
vt 0.116663 0.050447
vt 0.080294 0.080294
vt 0.050447 0.116663
vt 0.028269 0.158156
vt 0.014611 0.203179
vt 0.010000 0.250000
vt 0.014612 0.296822
vt 0.028269 0.341844
vt 0.050447 0.383337
vt 0.080295 0.419706
vt 0.116663 0.449553
vt 0.158156 0.471731
vt 0.203179 0.485389
vt 0.703179 0.485389
vt 0.985388 0.296822
vt 0.796822 0.014612
vt 0.341844 0.471731
vt 0.296822 0.485388
vt 0.250000 0.490000
vt 0.203179 0.485389
vt 0.158156 0.471731
vt 0.116663 0.449553
vt 0.080295 0.419706
vt 0.050447 0.383337
vt 0.014612 0.296822
vt 0.010000 0.250000
vt 0.014611 0.203179
vt 0.028269 0.158156
vt 0.050447 0.116663
vt 0.080294 0.080294
vt 0.116663 0.050447
vt 0.203178 0.014612
vt 0.250000 0.010000
vt 0.296822 0.014612
vt 0.341844 0.028269
vt 0.383337 0.050447
vt 0.419706 0.080294
vt 0.449553 0.116663
vt 0.485388 0.203178
vt 0.490000 0.250000
vt 0.485388 0.296822
vt 0.471731 0.341844
vt 0.449553 0.383337
vt 0.419706 0.419706
vt 0.383337 0.449553
vt 0.000000 1.000000
vt 0.703179 0.485389
vt 0.750000 0.490000
vt 0.796822 0.485388
vt 0.841844 0.471731
vt 0.883337 0.449553
vt 0.919706 0.419706
vt 0.949553 0.383337
vt 0.971731 0.341844
vt 0.990000 0.250000
vt 0.985388 0.203178
vt 0.971731 0.158156
vt 0.949553 0.116663
vt 0.919706 0.080294
vt 0.883337 0.050447
vt 0.841844 0.028269
vt 0.750000 0.010000
vt 0.703178 0.014612
vt 0.658156 0.028269
vt 0.616663 0.050447
vt 0.580294 0.080294
vt 0.550447 0.116663
vt 0.528269 0.158156
vt 0.510000 0.250000
vt 0.514612 0.296822
vt 0.528269 0.341844
vt 0.550447 0.383337
vt 0.580295 0.419706
vt 0.616663 0.449553
vt 0.658156 0.471731
vt 0.750000 0.490000
vt 0.796822 0.485388
vt 0.841844 0.471731
vt 0.883337 0.449553
vt 0.919706 0.419706
vt 0.949553 0.383337
vt 0.971731 0.341844
vt 0.990000 0.250000
vt 0.985388 0.203178
vt 0.971731 0.158156
vt 0.949553 0.116663
vt 0.919706 0.080294
vt 0.883337 0.050447
vt 0.841844 0.028269
vt 0.750000 0.010000
vt 0.703178 0.014612
vt 0.658156 0.028269
vt 0.616663 0.050447
vt 0.580294 0.080294
vt 0.550447 0.116663
vt 0.528269 0.158156
vt 0.514611 0.203179
vt 0.510000 0.250000
vt 0.514612 0.296822
vt 0.528269 0.341844
vt 0.550447 0.383337
vt 0.580295 0.419706
vt 0.616663 0.449553
vt 0.658156 0.471731
vn 0.0000 0.0000 -1.0000
vn 0.1951 0.0000 -0.9808
vn 0.3827 0.0000 -0.9239
vn 0.5556 0.0000 -0.8315
vn 0.7071 0.0000 -0.7071
vn 0.8315 0.0000 -0.5556
vn 0.9239 0.0000 -0.3827
vn 0.9808 0.0000 -0.1951
vn 1.0000 0.0000 -0.0000
vn 0.9808 0.0000 0.1951
vn 0.9239 0.0000 0.3827
vn 0.8315 0.0000 0.5556
vn 0.7071 0.0000 0.7071
vn 0.5556 0.0000 0.8315
vn 0.3827 0.0000 0.9239
vn 0.1951 0.0000 0.9808
vn -0.0000 0.0000 1.0000
vn -0.1951 0.0000 0.9808
vn -0.3827 0.0000 0.9239
vn -0.5556 0.0000 0.8315
vn -0.7071 0.0000 0.7071
vn -0.8315 0.0000 0.5556
vn -0.9239 0.0000 0.3827
vn -0.9808 0.0000 0.1951
vn -1.0000 0.0000 -0.0000
vn -0.9808 0.0000 -0.1951
vn -0.9239 0.0000 -0.3827
vn -0.8315 0.0000 -0.5556
vn -0.7071 0.0000 -0.7071
vn -0.5556 0.0000 -0.8315
vn -0.3827 0.0000 -0.9239
vn 0.0000 1.0000 -0.0000
vn -0.1951 0.0000 -0.9808
vn 0.0000 -1.0000 0.0000
vn 0.0000 0.4472 -0.8944
vn 0.1745 0.4472 -0.8772
vn 0.3423 0.4472 -0.8263
vn 0.4969 0.4472 -0.7437
vn 0.6325 0.4472 -0.6325
vn 0.7437 0.4472 -0.4969
vn 0.8263 0.4472 -0.3423
vn 0.8772 0.4472 -0.1745
vn 0.8944 0.4472 0.0000
vn 0.8772 0.4472 0.1745
vn 0.8263 0.4472 0.3423
vn 0.7437 0.4472 0.4969
vn 0.6325 0.4472 0.6325
vn 0.4969 0.4472 0.7437
vn 0.3423 0.4472 0.8263
vn 0.1745 0.4472 0.8772
vn -0.0000 0.4472 0.8944
vn -0.1745 0.4472 0.8772
vn -0.3423 0.4472 0.8263
vn -0.4969 0.4472 0.7437
vn -0.6325 0.4472 0.6325
vn -0.7437 0.4472 0.4969
vn -0.8263 0.4472 0.3423
vn -0.8772 0.4472 0.1745
vn -0.8944 0.4472 0.0000
vn -0.8772 0.4472 -0.1745
vn -0.8263 0.4472 -0.3423
vn -0.7437 0.4472 -0.4969
vn -0.6325 0.4472 -0.6325
vn -0.4969 0.4472 -0.7437
vn -0.3423 0.4472 -0.8263
vn -0.1745 0.4472 -0.8772
vn 0.0000 1.0000 -0.0002
vn 0.0000 1.0000 0.0001
vn 0.0000 1.0000 -0.0001
vn 0.0000 1.0000 -0.0003
vn 0.0000 1.0000 0.0004
vn 0.0000 -1.0000 -0.0001
vn 0.0000 -1.0000 0.0003
vn 0.0000 -1.0000 0.0001
usemtl None
s 1
f 2/1/1 3/2/2 1/3/1
f 4/4/2 5/5/3 3/2/2
f 6/6/3 7/7/4 5/5/3
f 8/8/4 9/9/5 7/7/4
f 10/10/5 11/11/6 9/9/5
f 12/12/6 13/13/7 11/11/6
f 14/14/7 15/15/8 13/13/7
f 16/16/8 17/17/9 15/15/8
f 18/18/9 19/19/10 17/17/9
f 20/20/10 21/21/11 19/19/10
f 22/22/11 23/23/12 21/21/11
f 24/24/12 25/25/13 23/23/12
f 26/26/13 27/27/14 25/25/13
f 28/28/14 29/29/15 27/27/14
f 30/30/15 31/31/16 29/29/15
f 32/32/16 33/33/17 31/31/16
f 34/34/17 35/35/18 33/33/17
f 36/36/18 37/37/19 35/35/18
f 38/38/19 39/39/20 37/37/19
f 40/40/20 41/41/21 39/39/20
f 42/42/21 43/43/22 41/41/21
f 44/44/22 45/45/23 43/43/22
f 46/46/23 47/47/24 45/45/23
f 48/48/24 49/49/25 47/47/24
f 50/50/25 51/51/26 49/49/25
f 52/52/26 53/53/27 51/51/26
f 54/54/27 55/55/28 53/53/27
f 56/56/28 57/57/29 55/55/28
f 58/58/29 59/59/30 57/57/29
f 60/60/30 61/61/31 59/59/30
f 54/62/32 38/63/32 22/64/32
f 62/65/31 63/66/33 61/61/31
f 64/67/33 1/68/1 63/66/33
f 15/69/34 31/70/34 47/71/34
f 65/72/35 88/73/32 66/74/36
f 66/74/36 88/73/32 67/75/37
f 67/75/37 88/73/32 68/76/38
f 68/76/38 88/73/32 69/77/39
f 69/77/39 88/73/32 70/78/40
f 70/78/40 88/73/32 71/79/41
f 71/79/41 88/73/32 72/80/42
f 72/80/42 88/73/32 73/81/43
f 73/81/43 88/73/32 74/82/44
f 74/82/44 88/73/32 75/83/45
f 75/83/45 88/73/32 76/84/46
f 76/84/46 88/73/32 77/85/47
f 77/85/47 88/73/32 78/86/48
f 78/86/48 88/73/32 79/87/49
f 79/87/49 88/73/32 80/88/50
f 80/88/50 88/73/32 81/89/51
f 81/89/51 88/73/32 82/90/52
f 82/90/52 88/73/32 83/91/53
f 83/91/53 88/73/32 84/92/54
f 84/92/54 88/73/32 85/93/55
f 85/93/55 88/73/32 86/94/56
f 86/94/56 88/73/32 87/95/57
f 87/95/57 88/73/32 89/96/58
f 89/96/58 88/73/32 90/97/59
f 90/97/59 88/73/32 91/98/60
f 91/98/60 88/73/32 92/99/61
f 92/99/61 88/73/32 93/100/62
f 93/100/62 88/73/32 94/101/63
f 94/101/63 88/73/32 95/102/64
f 95/102/64 88/73/32 96/103/65
f 96/103/65 88/73/32 97/104/66
f 97/104/66 88/73/32 65/72/35
f 97/105/34 72/106/34 80/107/34
f 2/1/1 4/4/2 3/2/2
f 4/4/2 6/6/3 5/5/3
f 6/6/3 8/8/4 7/7/4
f 8/8/4 10/10/5 9/9/5
f 10/10/5 12/12/6 11/11/6
f 12/12/6 14/14/7 13/13/7
f 14/14/7 16/16/8 15/15/8
f 16/16/8 18/18/9 17/17/9
f 18/18/9 20/20/10 19/19/10
f 20/20/10 22/22/11 21/21/11
f 22/22/11 24/24/12 23/23/12
f 24/24/12 26/26/13 25/25/13
f 26/26/13 28/28/14 27/27/14
f 28/28/14 30/30/15 29/29/15
f 30/30/15 32/32/16 31/31/16
f 32/32/16 34/34/17 33/33/17
f 34/34/17 36/36/18 35/35/18
f 36/36/18 38/38/19 37/37/19
f 38/38/19 40/40/20 39/39/20
f 40/40/20 42/42/21 41/41/21
f 42/42/21 44/44/22 43/43/22
f 44/44/22 46/46/23 45/45/23
f 46/46/23 48/48/24 47/47/24
f 48/48/24 50/50/25 49/49/25
f 50/50/25 52/52/26 51/51/26
f 52/52/26 54/54/27 53/53/27
f 54/54/27 56/56/28 55/55/28
f 56/56/28 58/58/29 57/57/29
f 58/58/29 60/60/30 59/59/30
f 60/60/30 62/65/31 61/61/31
f 6/108/32 4/109/32 2/110/67
f 2/110/67 64/111/68 6/108/32
f 64/111/68 62/112/32 6/108/32
f 62/112/32 60/113/69 58/114/32
f 58/114/32 56/115/68 54/62/32
f 54/62/32 52/116/32 50/117/32
f 50/117/32 48/118/32 54/62/32
f 48/118/32 46/119/32 54/62/32
f 46/119/32 44/120/32 38/63/32
f 44/120/32 42/121/32 38/63/32
f 42/121/32 40/122/32 38/63/32
f 38/63/32 36/123/70 34/124/32
f 34/124/32 32/125/71 30/126/32
f 30/126/32 28/127/32 26/128/32
f 26/128/32 24/129/32 22/64/32
f 22/64/32 20/130/32 18/131/32
f 18/131/32 16/132/32 22/64/32
f 16/132/32 14/133/32 22/64/32
f 14/133/32 12/134/68 10/135/32
f 10/135/32 8/136/32 6/108/32
f 62/112/32 58/114/32 6/108/32
f 58/114/32 54/62/32 6/108/32
f 38/63/32 34/124/32 22/64/32
f 34/124/32 30/126/32 22/64/32
f 30/126/32 26/128/32 22/64/32
f 14/133/32 10/135/32 22/64/32
f 10/135/32 6/108/32 22/64/32
f 54/62/32 46/119/32 38/63/32
f 6/108/32 54/62/32 22/64/32
f 62/65/31 64/67/33 63/66/33
f 64/67/33 2/137/1 1/68/1
f 63/138/34 1/139/34 3/140/34
f 3/140/34 5/141/34 7/142/34
f 7/142/34 9/143/34 11/144/34
f 11/144/34 13/145/34 7/142/34
f 13/145/34 15/69/34 7/142/34
f 15/69/34 17/146/34 19/147/34
f 19/147/34 21/148/34 15/69/34
f 21/148/34 23/149/34 15/69/34
f 23/149/34 25/150/34 31/70/34
f 25/150/34 27/151/34 31/70/34
f 27/151/34 29/152/34 31/70/34
f 31/70/34 33/153/34 35/154/34
f 35/154/34 37/155/34 39/156/34
f 39/156/34 41/157/34 43/158/34
f 43/158/34 45/159/34 47/71/34
f 47/71/34 49/160/34 51/161/34
f 51/161/34 53/162/34 55/163/34
f 55/163/34 57/164/34 63/138/34
f 57/164/34 59/165/34 63/138/34
f 59/165/34 61/166/34 63/138/34
f 63/138/34 3/140/34 7/142/34
f 31/70/34 35/154/34 47/71/34
f 35/154/34 39/156/34 47/71/34
f 39/156/34 43/158/34 47/71/34
f 47/71/34 51/161/34 63/138/34
f 51/161/34 55/163/34 63/138/34
f 63/138/34 7/142/34 15/69/34
f 15/69/34 23/149/34 31/70/34
f 63/138/34 15/69/34 47/71/34
f 97/105/34 65/167/72 66/168/34
f 66/168/34 67/169/73 68/170/34
f 68/170/34 69/171/34 70/172/34
f 70/172/34 71/173/34 68/170/34
f 71/173/34 72/106/34 68/170/34
f 72/106/34 73/174/34 74/175/34
f 74/175/34 75/176/34 72/106/34
f 75/176/34 76/177/34 72/106/34
f 76/177/34 77/178/34 80/107/34
f 77/178/34 78/179/74 80/107/34
f 78/179/74 79/180/34 80/107/34
f 80/107/34 81/181/72 82/182/74
f 82/182/74 83/183/34 80/107/34
f 83/183/34 84/184/34 80/107/34
f 84/184/34 85/185/74 86/186/34
f 86/186/34 87/187/34 89/188/34
f 89/188/34 90/189/34 91/190/34
f 91/190/34 92/191/34 89/188/34
f 92/191/34 93/192/34 89/188/34
f 93/192/34 94/193/34 97/105/34
f 94/193/34 95/194/34 97/105/34
f 95/194/34 96/195/34 97/105/34
f 97/105/34 66/168/34 72/106/34
f 66/168/34 68/170/34 72/106/34
f 84/184/34 86/186/34 89/188/34
f 72/106/34 76/177/34 80/107/34
f 80/107/34 84/184/34 89/188/34
f 89/188/34 93/192/34 80/107/34
f 93/192/34 97/105/34 80/107/34
