# Blender v2.91.2 OBJ File: 'Simple_Stage2.blend'
# www.blender.org
mtllib Pillar2.mtl
o Cylinder.002
v -5.875004 2.500000 -62.022797
v -5.875004 27.500000 -62.022797
v -5.896620 2.500000 -61.803322
v -5.896620 27.500000 -61.803322
v -5.960639 2.500000 -61.592278
v -5.960639 27.500000 -61.592278
v -6.064600 2.500000 -61.397781
v -6.064600 27.500000 -61.397781
v -6.204509 2.500000 -61.227303
v -6.204509 27.500000 -61.227303
v -6.374987 2.500000 -61.087395
v -6.374987 27.500000 -61.087395
v -6.569485 2.500000 -60.983433
v -6.569485 27.500000 -60.983433
v -6.780527 2.500000 -60.919415
v -6.780527 27.500000 -60.919415
v -7.000004 2.500000 -60.897797
v -7.000004 27.500000 -60.897797
v -7.219480 2.500000 -60.919415
v -7.219480 27.500000 -60.919415
v -7.430522 2.500000 -60.983433
v -7.430522 27.500000 -60.983433
v -7.625020 2.500000 -61.087395
v -7.625020 27.500000 -61.087395
v -7.795499 2.500000 -61.227303
v -7.795499 27.500000 -61.227303
v -7.935407 2.500000 -61.397781
v -7.935407 27.500000 -61.397781
v -8.039369 2.500000 -61.592278
v -8.039369 27.500000 -61.592278
v -8.103387 2.500000 -61.803322
v -8.103387 27.500000 -61.803322
v -8.125004 2.500000 -62.022797
v -8.125004 27.500000 -62.022797
v -8.103387 2.500000 -62.242275
v -8.103387 27.500000 -62.242275
v -8.039368 2.500000 -62.453316
v -8.039368 27.500000 -62.453316
v -7.935407 2.500000 -62.647812
v -7.935407 27.500000 -62.647812
v -7.795498 2.500000 -62.818291
v -7.795498 27.500000 -62.818291
v -7.625020 2.500000 -62.958199
v -7.625020 27.500000 -62.958199
v -7.430522 2.500000 -63.062160
v -7.430522 27.500000 -63.062160
v -7.219480 2.500000 -63.126179
v -7.219480 27.500000 -63.126179
v -7.000003 2.500000 -63.147797
v -7.000003 27.500000 -63.147797
v -6.780526 2.500000 -63.126179
v -6.780526 27.500000 -63.126179
v -6.569484 2.500000 -63.062160
v -6.569484 27.500000 -63.062160
v -6.374986 2.500000 -62.958199
v -6.374986 27.500000 -62.958199
v -6.204508 2.500000 -62.818291
v -6.204508 27.500000 -62.818291
v -6.064600 2.500000 -62.647812
v -6.064600 27.500000 -62.647812
v -5.960639 2.500000 -62.453316
v -5.960639 27.500000 -62.453316
v -5.896620 2.500000 -62.242271
v -5.896620 27.500000 -62.242271
vt 0.562500 0.527701
vt 0.551692 0.624713
vt 0.562500 0.527701
vt 0.551692 0.624713
vt 0.530491 0.716934
vt 0.530491 0.716934
vt 0.499711 0.800817
vt 0.499711 0.800817
vt 0.460537 0.873141
vt 0.460537 0.873141
vt 0.414472 0.931124
vt 0.414472 0.931124
vt 0.363288 0.972540
vt 0.363288 0.972540
vt 0.308951 0.995797
vt 0.308951 0.995797
vt 0.253549 1.000000
vt 0.253549 1.000000
vt 0.199213 0.984989
vt 0.199213 0.984989
vt 0.148028 0.951339
vt 0.148028 0.951339
vt 0.101964 0.900345
vt 0.101964 0.900345
vt 0.062789 0.833966
vt 0.062789 0.833966
vt 0.032010 0.754753
vt 0.032010 0.754753
vt 0.010808 0.665750
vt 0.010808 0.665750
vt 0.000000 0.570377
vt 0.000000 0.570377
vt 0.000000 0.472299
vt 0.000000 0.472300
vt 0.000000 0.570377
vt 0.000000 0.570377
vt 0.010808 0.665750
vt 0.010808 0.665750
vt 0.032010 0.754753
vt 0.032010 0.754753
vt 0.062789 0.833966
vt 0.062789 0.833966
vt 0.101964 0.900345
vt 0.101964 0.900345
vt 0.148028 0.951339
vt 0.148028 0.951339
vt 0.199213 0.984989
vt 0.199213 0.984989
vt 0.253550 1.000000
vt 0.253550 1.000000
vt 0.308951 0.995797
vt 0.308951 0.995797
vt 0.363288 0.972540
vt 0.363288 0.972540
vt 0.414472 0.931124
vt 0.414472 0.931124
vt 0.460537 0.873140
vt 0.460537 0.873140
vt 0.499711 0.800817
vt 0.499711 0.800817
vt 0.530491 0.716933
vt 0.199212 0.027460
vt 0.530491 0.716933
vt 0.551692 0.624713
vt 0.551692 0.624713
vt 0.253549 0.004203
vt 0.551692 0.334250
vt 0.562500 0.429623
vt 0.010808 0.375287
vt 0.032009 0.283066
vt 0.062789 0.199183
vt 0.101963 0.126859
vt 0.148028 0.068876
vt 0.253549 0.004203
vt 0.308951 0.000000
vt 0.363287 0.015011
vt 0.414472 0.048661
vt 0.460536 0.099655
vt 0.499711 0.166034
vt 0.530490 0.245247
vt 0.562500 0.429624
vt 0.010808 0.375286
vt 0.032009 0.283066
vt 0.062789 0.199183
vt 0.101964 0.126859
vt 0.148028 0.068875
vt 0.199212 0.027460
vt 0.308951 0.000000
vt 0.363288 0.015012
vt 0.414472 0.048661
vt 0.460537 0.099655
vt 0.499711 0.166034
vt 0.530491 0.245248
vt 0.551692 0.334251
vn 0.9952 0.0000 0.0980
vn 0.9569 0.0000 0.2903
vn 0.8819 0.0000 0.4714
vn 0.7730 0.0000 0.6344
vn 0.6344 0.0000 0.7730
vn 0.4714 0.0000 0.8819
vn 0.2903 0.0000 0.9569
vn 0.0980 0.0000 0.9952
vn -0.0980 0.0000 0.9952
vn -0.2903 0.0000 0.9569
vn -0.4714 0.0000 0.8819
vn -0.6344 0.0000 0.7730
vn -0.7730 0.0000 0.6344
vn -0.8819 0.0000 0.4714
vn -0.9569 0.0000 0.2903
vn -0.9952 0.0000 0.0980
vn -0.9952 0.0000 -0.0980
vn -0.9569 0.0000 -0.2903
vn -0.8819 0.0000 -0.4714
vn -0.7730 0.0000 -0.6344
vn -0.6344 0.0000 -0.7730
vn -0.4714 0.0000 -0.8819
vn -0.2903 0.0000 -0.9569
vn -0.0980 0.0000 -0.9952
vn 0.0980 0.0000 -0.9952
vn 0.2903 0.0000 -0.9569
vn 0.4714 0.0000 -0.8819
vn 0.6344 0.0000 -0.7730
vn 0.7730 0.0000 -0.6344
vn 0.8819 0.0000 -0.4714
vn 0.0000 1.0000 -0.0000
vn 0.9569 0.0000 -0.2903
vn 0.9952 0.0000 -0.0980
vn 0.0000 -1.0000 0.0000
vn 0.0000 1.0000 -0.0002
vn 0.0000 1.0000 0.0001
vn 0.0000 1.0000 -0.0001
vn 0.0000 1.0000 0.0002
usemtl Material.005
s off
f 2/1/1 3/2/1 1/3/1
f 4/4/2 5/5/2 3/2/2
f 6/6/3 7/7/3 5/5/3
f 8/8/4 9/9/4 7/7/4
f 10/10/5 11/11/5 9/9/5
f 12/12/6 13/13/6 11/11/6
f 14/14/7 15/15/7 13/13/7
f 16/16/8 17/17/8 15/15/8
f 18/18/9 19/19/9 17/17/9
f 20/20/10 21/21/10 19/19/10
f 22/22/11 23/23/11 21/21/11
f 24/24/12 25/25/12 23/23/12
f 26/26/13 27/27/13 25/25/13
f 28/28/14 29/29/14 27/27/14
f 30/30/15 31/31/15 29/29/15
f 32/32/16 33/33/16 31/31/16
f 34/34/17 35/35/17 33/33/17
f 36/36/18 37/37/18 35/35/18
f 38/38/19 39/39/19 37/37/19
f 40/40/20 41/41/20 39/39/20
f 42/42/21 43/43/21 41/41/21
f 44/44/22 45/45/22 43/43/22
f 46/46/23 47/47/23 45/45/23
f 48/48/24 49/49/24 47/47/24
f 50/50/25 51/51/25 49/49/25
f 52/52/26 53/53/26 51/51/26
f 54/54/27 55/55/27 53/53/27
f 56/56/28 57/57/28 55/55/28
f 58/58/29 59/59/29 57/57/29
f 60/60/30 61/61/30 59/59/30
f 54/54/31 38/38/31 22/62/31
f 62/63/32 63/64/32 61/61/32
f 64/65/33 1/3/33 63/64/33
f 15/15/34 31/31/34 47/66/34
f 2/1/1 4/4/1 3/2/1
f 4/4/2 6/6/2 5/5/2
f 6/6/3 8/8/3 7/7/3
f 8/8/4 10/10/4 9/9/4
f 10/10/5 12/12/5 11/11/5
f 12/12/6 14/14/6 13/13/6
f 14/14/7 16/16/7 15/15/7
f 16/16/8 18/18/8 17/17/8
f 18/18/9 20/20/9 19/19/9
f 20/20/10 22/22/10 21/21/10
f 22/22/11 24/24/11 23/23/11
f 24/24/12 26/26/12 25/25/12
f 26/26/13 28/28/13 27/27/13
f 28/28/14 30/30/14 29/29/14
f 30/30/15 32/32/15 31/31/15
f 32/32/16 34/34/16 33/33/16
f 34/34/17 36/36/17 35/35/17
f 36/36/18 38/38/18 37/37/18
f 38/38/19 40/40/19 39/39/19
f 40/40/20 42/42/20 41/41/20
f 42/42/21 44/44/21 43/43/21
f 44/44/22 46/46/22 45/45/22
f 46/46/23 48/48/23 47/47/23
f 48/48/24 50/50/24 49/49/24
f 50/50/25 52/52/25 51/51/25
f 52/52/26 54/54/26 53/53/26
f 54/54/27 56/56/27 55/55/27
f 56/56/28 58/58/28 57/57/28
f 58/58/29 60/60/29 59/59/29
f 60/60/30 62/63/30 61/61/30
f 6/67/31 4/68/31 2/1/31
f 2/1/31 64/65/31 6/67/31
f 64/65/31 62/63/31 6/67/31
f 62/63/31 60/60/31 58/58/31
f 58/58/35 56/56/35 54/54/35
f 54/54/31 52/52/31 50/50/31
f 50/50/31 48/48/31 54/54/31
f 48/48/31 46/46/31 54/54/31
f 46/46/31 44/44/31 38/38/31
f 44/44/31 42/42/31 38/38/31
f 42/42/36 40/40/36 38/38/36
f 38/38/31 36/36/31 34/34/31
f 34/34/31 32/69/31 30/70/31
f 30/70/31 28/71/31 26/72/31
f 26/72/31 24/73/31 22/62/31
f 22/62/31 20/74/31 18/75/31
f 18/75/36 16/76/36 22/62/36
f 16/76/37 14/77/37 22/62/37
f 14/77/38 12/78/38 10/79/38
f 10/79/37 8/80/37 6/67/37
f 62/63/31 58/58/31 6/67/31
f 58/58/31 54/54/31 6/67/31
f 38/38/31 34/34/31 22/62/31
f 34/34/31 30/70/31 22/62/31
f 30/70/31 26/72/31 22/62/31
f 14/77/31 10/79/31 22/62/31
f 10/79/31 6/67/31 22/62/31
f 54/54/31 46/46/31 38/38/31
f 6/67/31 54/54/31 22/62/31
f 62/63/32 64/65/32 63/64/32
f 64/65/33 2/1/33 1/3/33
f 63/81/34 1/3/34 3/2/34
f 3/2/34 5/5/34 7/7/34
f 7/7/34 9/9/34 11/11/34
f 11/11/34 13/13/34 7/7/34
f 13/13/34 15/15/34 7/7/34
f 15/15/34 17/17/34 19/19/34
f 19/19/34 21/21/34 15/15/34
f 21/21/34 23/23/34 15/15/34
f 23/23/34 25/25/34 31/31/34
f 25/25/34 27/27/34 31/31/34
f 27/27/34 29/29/34 31/31/34
f 31/31/34 33/33/34 35/82/34
f 35/82/34 37/83/34 39/84/34
f 39/84/34 41/85/34 43/86/34
f 43/86/34 45/87/34 47/66/34
f 47/66/34 49/88/34 51/89/34
f 51/89/34 53/90/34 55/91/34
f 55/91/34 57/92/34 63/81/34
f 57/92/34 59/93/34 63/81/34
f 59/93/34 61/94/34 63/81/34
f 63/81/34 3/2/34 7/7/34
f 31/31/34 35/82/34 47/66/34
f 35/82/34 39/84/34 47/66/34
f 39/84/34 43/86/34 47/66/34
f 47/66/34 51/89/34 63/81/34
f 51/89/34 55/91/34 63/81/34
f 63/81/34 7/7/34 15/15/34
f 15/15/34 23/23/34 31/31/34
f 63/81/34 15/15/34 47/66/34
